<svg viewBox="0 0 30 28" xmlns="http://www.w3.org/2000/svg" fill="none">
  <defs>
    <linearGradient id="zhanlu_paint_linear_0" x1="7.1875515" x2="9.57058239" y1="8.33645153" y2="29.9651585" gradientUnits="userSpaceOnUse">
      <stop stop-color="rgb(156,107,255)" offset="0" stop-opacity="1" />
      <stop stop-color="rgb(231,158,254)" offset="1" stop-opacity="1" />
    </linearGradient>
    <linearGradient id="zhanlu_paint_linear_1" x1="24.7831345" x2="21.6136875" y1="1.77821565" y2="10.5820646" gradientUnits="userSpaceOnUse">
      <stop stop-color="rgb(0,245,255)" offset="0" stop-opacity="1" />
      <stop stop-color="rgb(7,211,219)" offset="1" stop-opacity="1" />
    </linearGradient>
    <linearGradient id="zhanlu_paint_linear_2" x1="24.2312469" x2="16.5754681" y1="4.76148891" y2="26.0271416" gradientUnits="userSpaceOnUse">
      <stop stop-color="rgb(18,83,254)" offset="0" stop-opacity="1" />
      <stop stop-color="rgb(27,0,255)" offset="1" stop-opacity="1" />
    </linearGradient>
  </defs>
  <g>
    <path d="M15.9035 8.35447L8.71688 7.65514C8.71688 7.65514 6.31186 7.24637 5.56385 9.32468C4.81583 11.403 0.00105289 24.7741 0.00105289 24.7741C0.00105289 24.7741 -0.140975 26.8475 2.87477 27.0544C5.88578 27.2612 20.4816 28.0049 20.8603 27.9999C21.2438 27.9999 21.5658 27.9753 21.5847 27.9753C22.4984 26.8623 21.9445 25.7 20.3348 24.5377C17.7546 22.6761 14.4501 19.8394 14.4501 19.8394C14.4501 19.8394 12.438 17.9728 12.9446 16.5692C13.4512 15.1607 15.9035 8.35447 15.9035 8.35447Z" fill="url(#zhanlu_paint_linear_0)" fill-rule="evenodd" />
    <path d="M18.4695 1.23305C18.8578 0.159422 19.6437 -0.613789 21.5847 0.666688C23.5258 1.94224 28.6909 6.28601 28.9181 6.53226C29.1501 6.77358 29.2164 6.85237 29.2117 7.35964C29.2117 7.96048 28.7288 8.64504 27.1759 8.74847C25.178 8.88636 15.9036 8.35447 15.9036 8.35447C15.9036 8.35447 18.0813 2.30668 18.4695 1.23305Z" fill="url(#zhanlu_paint_linear_1)" fill-rule="evenodd" />
    <path d="M15.9034 8.35442C15.9034 8.35442 13.3138 15.5448 12.935 16.5987C12.5563 17.6526 12.3953 17.9678 14.2701 19.726C16.1496 21.4842 21.1064 25.2173 21.1064 25.2173C21.1064 25.2173 22.6593 26.6505 21.5846 27.9753C22.7397 27.8965 22.9859 27.7487 23.6345 25.9462C24.2784 24.1486 29.5855 9.4182 29.8222 8.75826C30.059 8.09832 30.2625 7.61568 29.0127 6.62085C29.3725 7.42853 29.0553 8.36427 27.7865 8.66469C26.5177 8.96511 15.9034 8.35442 15.9034 8.35442Z" fill="url(#zhanlu_paint_linear_2)" fill-rule="evenodd" />
  </g>
</svg>
